<?xml version="1.0" standalone="no"?>
<!DOCTYPE svg PUBLIC "-//W3C//DTD SVG 20010904//EN"
 "http://www.w3.org/TR/2001/REC-SVG-20010904/DTD/svg10.dtd">
<svg version="1.0" xmlns="http://www.w3.org/2000/svg"
 width="512.000000pt" height="512.000000pt" viewBox="0 0 512.000000 512.000000"
 preserveAspectRatio="xMidYMid meet">
<metadata>
Created by potrace 1.11, written by Peter Selinger 2001-2013
</metadata>
<g transform="translate(0.000000,512.000000) scale(0.100000,-0.100000)"
fill="#000000" stroke="none">
<path d="M912 4118 l3 -53 288 1 287 1 0 -1492 0 -1491 -277 1 c-153 0 -284
-1 -290 -3 -8 -3 -13 -23 -13 -53 l0 -49 2105 0 2105 0 0 520 0 521 -61 -3
-61 -3 -32 -85 c-173 -455 -569 -762 -1066 -826 -25 -3 -56 -8 -70 -11 -14 -3
-330 -6 -702 -7 l-678 -3 0 1492 0 1491 268 0 c147 -1 277 1 290 3 19 3 22 9
22 52 l0 49 -1061 0 -1060 0 3 -52z"/>
<path d="M263 1590 c-102 -28 -182 -92 -231 -185 -22 -42 -26 -63 -26 -135 -1
-75 3 -91 28 -138 64 -115 177 -184 309 -188 156 -5 286 67 349 195 35 70 35
188 1 260 -75 157 -258 238 -430 191z"/>
</g>
</svg>
