<?xml version="1.0" encoding="utf-8"?>
<!-- Generator: Adobe Illustrator 21.1.0, SVG Export Plug-In . SVG Version: 6.00 Build 0)  -->
<svg version="1.1" id="Layer_1" xmlns="http://www.w3.org/2000/svg" xmlns:xlink="http://www.w3.org/1999/xlink" x="0px" y="0px"
	 viewBox="0 0 557 106" style="enable-background:new 0 0 557 106;" xml:space="preserve">
<style type="text/css">
	.st0{display:none;fill:#FFFFFF;stroke:#231F20;stroke-miterlimit:10;}
	.st1{fill:#FFFFFF;}
	.st2{font-family:'BlairMdITCTTMedium';}
	.st3{font-size:11.1948px;}
	.st4{display:none;}
</style>
<g id="Layer_3">
	<rect x="12.9" class="st0" width="531.1" height="146.6"/>
	<text transform="matrix(1 0 0 1 518.7822 25.0283)" class="st1 st2 st3">TM</text>
</g>
<g id="Layer_2">
	<rect x="-27" y="-141.1" class="st4" width="1030" height="344.5"/>
</g>
<g id="Layer_1_1_">
	<g>
		<path class="st1" d="M39.5,72.2c-1.9,0-3.6,0.7-5,2.1s-2.1,3.1-2.1,5s0.7,3.6,2.1,4.9c1.4,1.4,3.1,2,5,2s3.6-0.7,5-2
			c1.4-1.4,2.1-3,2.1-4.9s-0.7-3.6-2.1-5C43.1,72.9,41.5,72.2,39.5,72.2z"/>
		<path class="st1" d="M130.2,63.7c-1,3.5-2.5,6.6-4.4,9.1s-4.1,4.5-6.4,6.1c-2.4,1.6-4.9,2.7-7.6,3.4c-2.7,0.7-5.4,1-8.1,1H80.4
			v-63h11.4V18H50.3v2.2h11.3v63H50.3v2.2h82.4v-22h-2.4L130.2,63.7z"/>
		<path class="st1" d="M437.6,80.8c-0.8,0.6-1.8,1.3-2.8,2s-2.3,1-3.8,1c-1.4,0-2.5-0.2-3.2-0.6s-1.2-1.2-1.7-2.4
			c-0.4-1.3-0.8-3.1-1-5.4l-1-9.4c-0.3-3.4-1.2-6.2-2.6-8.2s-3.3-3.7-5.7-4.8c-2.3-1.1-5.1-2-8.3-2.6c-2.7-0.5-5.6-0.9-9-1.4
			c2.2-0.2,4.5-0.6,6.7-1c2.9-0.6,5.6-1.5,7.9-2.6c2.4-1.1,4.4-2.6,5.9-4.5c1.5-1.8,2.3-4.1,2.3-6.7c0-3.2-1-5.9-3-8.1
			c-2-2.1-4.5-3.8-7.5-5s-6.3-2.1-9.9-2.6s-7-0.8-10.2-0.8c-3.3,0-16.1,0-19.5,0.1s-6.8,0.1-10.2,0.1h-18.9H342v2.2h0.1h11.4v41.5
			c0,2.9-0.2,5.8-0.6,8.5c-0.4,2.7-1.2,5.1-2.5,7.3c-1.3,2.1-3.3,3.8-5.9,5.1c-2.6,1.3-6.2,2-10.6,2s-8.1-0.4-11.1-1.2
			c-2.9-0.8-5.4-1.8-7.3-3s-3.4-2.6-4.4-4.2c-1-1.5-1.8-3.1-2.3-4.6s-0.8-3-0.8-4.4c-0.1-1.5-0.1-2.6-0.1-3.5V20.2h11.2V18h-48v2.2
			h10.1l-18.3,22L232.4,3h-48.7v2.2h20.6v58.5c0,0.9,0,2.1-0.1,3.5c-0.1,1.4-0.4,2.8-0.8,4.4c-0.5,1.5-1.2,3.1-2.3,4.6
			c-1,1.5-2.5,2.9-4.4,4.2c-1.9,1.2-4.4,2.3-7.3,3c-2.9,0.8-6.7,1.2-11.1,1.2c-4.4,0-8-0.7-10.6-2s-4.6-3-5.9-5.1
			c-1.3-2.1-2.2-4.6-2.5-7.3c-0.4-2.7-0.5-5.6-0.5-8.5V20.2H170V18h-41.6v2.2h11.5v43.2c0,2.8,0.4,5.7,1.3,8.4
			c0.8,2.8,2.6,5.3,5.3,7.5c2.6,2.2,6.4,4,11.3,5.3c4.9,1.3,11.4,2,19.4,2c4.9,0,9.2-0.4,12.6-1.3c3.4-0.8,6.3-2,8.5-3.3
			c2.3-1.4,4-2.9,5.2-4.7c1.2-1.7,2.1-3.4,2.6-5.2c0.6-1.7,0.9-3.4,1-4.9c0.1-1.6,0.1-2.8,0.1-3.8V5.2h4.3l39.1,48.9l-23.7,29.1
			h-10.3v2.2h24.3v-2.2h-10.6l22-27l35.2,44.1h45.8v-2.2h-24.9l-43.9-53.9l19.9-24H305v43.4c0,1,0,2.2,0.1,3.8
			c0.1,1.6,0.4,3.2,1,4.9c0.6,1.7,1.5,3.4,2.6,5.2c1.2,1.7,2.9,3.3,5.2,4.7c2.3,1.4,5.1,2.5,8.5,3.3s7.6,1.3,12.6,1.3
			c8,0,14.5-0.7,19.4-2s8.7-3.1,11.3-5.3c2.7-2.2,4.4-4.7,5.3-7.5c0.8-2.8,1.3-5.6,1.3-8.4v-13H389c3.8,0,6.7,0.5,8.8,1.6
			c2.1,1.1,3.6,2.5,4.6,4.3s1.7,3.9,2,6.2c0.3,2.4,0.5,4.8,0.7,7.4c0.1,1.7,0.3,3.5,0.6,5.4c0.3,2,1.1,3.8,2.4,5.5s3.2,3.1,5.9,4.2
			c2.6,1.1,6.2,1.7,10.8,1.7c2.2,0,4.1-0.1,5.6-0.3c1.5-0.2,2.8-0.5,3.8-0.9c1.1-0.4,2-0.9,2.8-1.4c0.8-0.6,1.6-1.1,2.4-1.7l0.5-0.4
			l-2-1.4L437.6,80.8z M372.2,20.2h18.6c1.1,0.1,2.1,0.4,3,0.6c1.9,0.6,3.5,1.5,4.6,2.7s1.9,2.8,2.4,4.7s0.7,4.2,0.7,6.9
			c0,1.7-0.1,3.3-0.4,4.9c-0.3,1.5-0.9,2.9-1.9,4.1c-1,1.2-2.6,2.2-4.6,2.9c-2.1,0.7-5,1.1-8.6,1.1h-13.7V20.2H372.2z"/>
		<polygon class="st1" points="491.1,18 491.1,20.2 501.4,20.2 479.6,51.6 455.3,20.2 464.6,20.2 464.6,18 424,18 424,20.2 
			433.8,20.2 462.2,57.7 462.2,83.2 450.9,83.2 450.9,85.4 492.5,85.4 492.5,83.2 481,83.2 481,54.2 504.6,20.2 515.6,20.2 
			515.6,18 		"/>
	</g>
</g>
</svg>
