<?xml version="1.0" encoding="utf-8"?>
<!-- Generator: Adobe Illustrator 21.1.0, SVG Export Plug-In . SVG Version: 6.00 Build 0)  -->
<svg version="1.1" xmlns="http://www.w3.org/2000/svg" xmlns:xlink="http://www.w3.org/1999/xlink" x="0px" y="0px"
	 viewBox="0 0 557 146.6" style="enable-background:new 0 0 557 146.6;" xml:space="preserve">
<style type="text/css">
	.st0{display:none;stroke:#231F20;stroke-miterlimit:10;}
	.st1{font-family:'BlairMdITCTTMedium';}
	.st2{font-size:11.1948px;}
	.st3{display:none;}
</style>
<g id="Layer_3">
	<rect x="12.9" class="st0" width="531.1" height="146.6"/>
	<g>
		<path d="M198.4,128.7h-4l-14.9-16v16h-3.2v-19.5h4l14.9,16v-16h3.2V128.7z"/>
		<path d="M226.8,128.7h-20.5v-19.5H226v2.9h-16.5v5H221v2.9h-11.4v5.8h17.2V128.7z"/>
		<path d="M252.2,112.1h-9.3v16.6h-3.2v-16.6h-9.3v-2.9h21.9V112.1z"/>
		<path d="M286.4,109.2l-6.4,19.5h-4.2l-4.9-16.3l-4.9,16.3h-4.1l-6.5-19.5h3.6l4.9,16.4l4.9-16.4h4.1l4.9,16.4l4.9-16.4H286.4z"/>
		<path d="M315.6,118.9c0,3.2-1.3,5.8-3.9,7.8c-2.3,1.7-5.2,2.6-8.6,2.6c-3.5,0-6.3-0.9-8.6-2.6c-2.6-2-3.9-4.6-3.9-7.7
			c0-3.1,1.3-5.7,4-7.7c2.3-1.8,5.2-2.6,8.6-2.6c3.4,0,6.3,0.9,8.6,2.6C314.3,113.2,315.6,115.8,315.6,118.9z M312.3,118.9
			c0-2.3-1-4.1-2.9-5.6c-1.7-1.2-3.8-1.8-6.2-1.8c-2.7,0-4.9,0.7-6.6,2.1c-1.7,1.4-2.6,3.2-2.6,5.3c0,2.2,0.8,4,2.5,5.4s3.9,2,6.7,2
			c2.8,0,5-0.7,6.7-2.1C311.4,122.9,312.3,121.1,312.3,118.9z"/>
		<path d="M344.7,128.7h-3.8l-5.3-7.5h-9.9v7.5h-3.2v-19.5h15.4c2.1,0,3.7,0.6,4.8,1.7c1.2,1.1,1.8,2.6,1.8,4.5c0,1.7-0.5,3-1.4,4
			c-0.9,0.9-2.1,1.5-3.6,1.8L344.7,128.7z M337.4,118.4c2.5,0,3.8-1,3.8-3c0-2.2-1.4-3.2-4-3.2h-11.4v6.3H337.4z"/>
		<path d="M373.7,128.7h-4.2l-9.4-10.3l-5.9,4.3v5.9H351v-19.5h3.2v10.1l13.7-10.1h4.7l-10,7.4L373.7,128.7z"/>
	</g>
	<text transform="matrix(1 0 0 1 518.7822 25.0283)" class="st1 st2">TM</text>
</g>
<g id="Layer_2">
	<rect x="-27" y="-141.1" class="st3" width="1030" height="344.5"/>
</g>
<g id="Layer_1">
	<g>
		<path d="M39.5,72.2c-1.9,0-3.6,0.7-5,2.1c-1.4,1.4-2.1,3.1-2.1,5c0,1.9,0.7,3.6,2.1,4.9c1.4,1.4,3.1,2,5,2s3.6-0.7,5-2
			c1.4-1.4,2.1-3,2.1-4.9c0-1.9-0.7-3.6-2.1-5C43.1,72.9,41.5,72.2,39.5,72.2z"/>
		<path d="M130.2,63.7c-1,3.5-2.5,6.6-4.4,9.1c-1.9,2.5-4.1,4.5-6.4,6.1c-2.4,1.6-4.9,2.7-7.6,3.4c-2.7,0.7-5.4,1-8.1,1H80.4v-63
			h11.4V18H50.3v2.2h11.3v63H50.3v2.2h82.4v-22h-2.4L130.2,63.7z"/>
		<path d="M437.6,80.8c-0.8,0.6-1.8,1.3-2.8,2c-1,0.7-2.3,1-3.8,1c-1.4,0-2.5-0.2-3.2-0.6c-0.7-0.4-1.2-1.2-1.7-2.4
			c-0.4-1.3-0.8-3.1-1-5.4l-1-9.4c-0.3-3.4-1.2-6.2-2.6-8.2c-1.4-2-3.3-3.7-5.7-4.8c-2.3-1.1-5.1-2-8.3-2.6c-2.7-0.5-5.6-0.9-9-1.4
			c2.2-0.2,4.5-0.6,6.7-1c2.9-0.6,5.6-1.5,7.9-2.6c2.4-1.1,4.4-2.6,5.9-4.5c1.5-1.8,2.3-4.1,2.3-6.7c0-3.2-1-5.9-3-8.1
			c-2-2.1-4.5-3.8-7.5-5c-3-1.2-6.3-2.1-9.9-2.6c-3.6-0.5-7-0.8-10.2-0.8c-3.3,0-16.1,0-19.5,0.1c-3.4,0.1-6.8,0.1-10.2,0.1h-18.9
			H342v2.2h0.1h11.4v41.5c0,2.9-0.2,5.8-0.6,8.5c-0.4,2.7-1.2,5.1-2.5,7.3c-1.3,2.1-3.3,3.8-5.9,5.1c-2.6,1.3-6.2,2-10.6,2
			c-4.4,0-8.1-0.4-11.1-1.2c-2.9-0.8-5.4-1.8-7.3-3c-1.9-1.2-3.4-2.6-4.4-4.2c-1-1.5-1.8-3.1-2.3-4.6c-0.5-1.5-0.8-3-0.8-4.4
			c-0.1-1.5-0.1-2.6-0.1-3.5V20.2h11.2V18h-48v2.2h10.1l-18.3,22L232.4,3h-48.7v2.2h20.6v58.5c0,0.9,0,2.1-0.1,3.5
			c-0.1,1.4-0.4,2.8-0.8,4.4c-0.5,1.5-1.2,3.1-2.3,4.6c-1,1.5-2.5,2.9-4.4,4.2c-1.9,1.2-4.4,2.3-7.3,3c-2.9,0.8-6.7,1.2-11.1,1.2
			c-4.4,0-8-0.7-10.6-2c-2.6-1.3-4.6-3-5.9-5.1c-1.3-2.1-2.2-4.6-2.5-7.3c-0.4-2.7-0.5-5.6-0.5-8.5V20.2H170V18h-41.6v2.2h11.5v43.2
			c0,2.8,0.4,5.7,1.3,8.4c0.8,2.8,2.6,5.3,5.3,7.5c2.6,2.2,6.4,4,11.3,5.3c4.9,1.3,11.4,2,19.4,2c4.9,0,9.2-0.4,12.6-1.3
			c3.4-0.8,6.3-2,8.5-3.3c2.3-1.4,4-2.9,5.2-4.7c1.2-1.7,2.1-3.4,2.6-5.2c0.6-1.7,0.9-3.4,1-4.9c0.1-1.6,0.1-2.8,0.1-3.8V5.2h4.3
			l39.1,48.9l-23.7,29.1h-10.3v2.2h24.3v-2.2h-10.6l22-27l35.2,44.1h45.8v-2.2h-24.9l-43.9-53.9l19.9-24H305v43.4c0,1,0,2.2,0.1,3.8
			c0.1,1.6,0.4,3.2,1,4.9c0.6,1.7,1.5,3.4,2.6,5.2c1.2,1.7,2.9,3.3,5.2,4.7c2.3,1.4,5.1,2.5,8.5,3.3c3.4,0.8,7.6,1.3,12.6,1.3
			c8,0,14.5-0.7,19.4-2c4.9-1.3,8.7-3.1,11.3-5.3c2.7-2.2,4.4-4.7,5.3-7.5c0.8-2.8,1.3-5.6,1.3-8.4v-13H389c3.8,0,6.7,0.5,8.8,1.6
			c2.1,1.1,3.6,2.5,4.6,4.3c1,1.8,1.7,3.9,2,6.2c0.3,2.4,0.5,4.8,0.7,7.4c0.1,1.7,0.3,3.5,0.6,5.4c0.3,2,1.1,3.8,2.4,5.5
			c1.3,1.7,3.2,3.1,5.9,4.2c2.6,1.1,6.2,1.7,10.8,1.7c2.2,0,4.1-0.1,5.6-0.3c1.5-0.2,2.8-0.5,3.8-0.9c1.1-0.4,2-0.9,2.8-1.4
			c0.8-0.6,1.6-1.1,2.4-1.7l0.5-0.4l-2-1.4L437.6,80.8z M372.2,20.2h18.6c1.1,0.1,2.1,0.4,3,0.6c1.9,0.6,3.5,1.5,4.6,2.7
			c1.1,1.2,1.9,2.8,2.4,4.7c0.5,1.9,0.7,4.2,0.7,6.9c0,1.7-0.1,3.3-0.4,4.9c-0.3,1.5-0.9,2.9-1.9,4.1c-1,1.2-2.6,2.2-4.6,2.9
			c-2.1,0.7-5,1.1-8.6,1.1h-13.7V20.2z"/>
		<polygon points="491.1,18 491.1,20.2 501.4,20.2 479.6,51.6 455.3,20.2 464.6,20.2 464.6,18 424,18 424,20.2 433.8,20.2 
			462.2,57.7 462.2,83.2 450.9,83.2 450.9,85.4 492.5,85.4 492.5,83.2 481,83.2 481,54.2 504.6,20.2 515.6,20.2 515.6,18 		"/>
	</g>
</g>
</svg>
